# xmcd
#
# Track frame offsets:
#	150
#	12288
#	25730
#	40221
#	52305
#	64121
#	83012
#	98114
#	112138
#	127257
#	142987
#	155367
#	169884
#	184631
#	199684
#	212252
#
# Disc length: 3023 seconds
#
# Revision: 1
# Processed by: cddbd v1.5.2PL0 Copyright (c) Steve Scherf et al.
# Submitted via: audiograbber 1.83.01
#
DISCID=db0bcd10
DTITLE=Various Artist - Sertanejo Pop Festival
DYEAR=2012
DGENRE=Sertanejo
TTITLE0=Joáo Neto and Frederico - LE LE LE
TTITLE1=Luan Santana - Voce De Mim Nao Sai
TTITLE2=Michel Teló - Humilde Residencia
TTITLE3=Fernando and Sorocaba - É tenso
TTITLE4=Joao Lucas and Marcelo - Eu Quero Tchu Eu Quero Tcha
TTITLE5=Thaeme and Thiago - Al Que Dó
TTITLE6=Gusttavo Lima - Balada
TTITLE7=Marcos and Belutti - Desce Do Salto
TTITLE8=Christiano Araújo - Efeitos
TTITLE9=Humberto and Ronaldo - E Deixe O Tempo Ver
TTITLE10=Joao Neto and Frederico - Já Te Desenhei
TTITLE11=Luan Santana - Te Vivo
TTITLE12=Gusttavo Lima - Inventor Dos Amores
TTITLE13=Michel Teló - Eu Te Amo E open Bar
TTITLE14=Thaeme and Thiago - Tchá Tchá Tchá
TTITLE15=Joao Lucas and Marcelo - O Pegador
EXTD=
EXTT0=
EXTT1=
EXTT2=
EXTT3=
EXTT4=
EXTT5=
EXTT6=
EXTT7=
EXTT8=
EXTT9=
EXTT10=
EXTT11=
EXTT12=
EXTT13=
EXTT14=
EXTT15=
PLAYORDER=
